g Eff_Equip_Bow_Narukami_Model
v -0.01306057 0.009755779 0.007955429
v -0.011893349 0.007601507 -0.03420755
v -0.0037643814 0.010739547 -0.03420755
v -0.0037643814 0.013146423 0.007955429
v 0.004364605 0.007601507 -0.03420755
v 0.005531807 0.009303426 0.0051124524
v 0.007731781 2.5597064E-05 -0.03420755
v 0.009382419 2.559578E-05 0.007955429
v -0.016911125 2.559578E-05 0.007955429
v -0.015260467 2.5597064E-05 -0.03420755
v 0.016015148 2.5595575E-05 0.015889542
v 0.006668644 0.011318662 0.017382862
v -0.019803047 2.5595109E-05 0.031257637
v 0.0079364395 0.01351197 0.030869424
v -0.0034411428 0.013511961 0.024927914
v -0.015063743 0.010228744 0.030222347
v -0.019901007 0.010598857 0.048126124
v -0.007202892 0.013511959 0.042319555
v -0.016786689 0.010783928 0.05072851
v -0.02211399 2.5594374E-05 0.05506792
v -0.025320433 2.5594569E-05 0.04927774
v 0.015986308 2.5595296E-05 0.024368431
v -0.01306057 -0.0097045805 0.007955429
v -0.0037643814 -0.01309523 0.00795542
v -0.0037643814 -0.010688352 -0.03420755
v -0.011893349 -0.0075503117 -0.03420755
v 0.004364605 -0.0075503117 -0.03420755
v 0.005531807 -0.009252231 0.005112476
v 0.007731781 2.5597064E-05 -0.03420755
v 0.009382419 2.559578E-05 0.007955429
v -0.016911125 2.559578E-05 0.007955429
v -0.015260467 2.5597064E-05 -0.03420755
v 0.006668644 -0.01126747 0.017382862
v 0.016015148 2.5595575E-05 0.015889542
v -0.019803047 2.5595109E-05 0.031257637
v -0.015063743 -0.01017754 0.030222347
v -0.0034411428 -0.01346077 0.024927914
v 0.0079364395 -0.013460777 0.030869424
v -0.019901007 -0.010547672 0.048126135
v -0.007202892 -0.013460773 0.042319555
v -0.016786689 -0.010732733 0.05072852
v 0.011008186 -0.013460772 0.034683462
v 0.015986308 2.5595296E-05 0.024368431
v -0.02211399 2.5594374E-05 0.05506792
v -0.025320433 2.5594569E-05 0.04927774
v -0.01306057 0.009755775 -0.07637053
v -0.0037643814 0.01314642 -0.07637052
v -0.0037643814 0.010739547 -0.03420755
v -0.011893349 0.007601507 -0.03420755
v 0.004364605 0.007601507 -0.03420755
v 0.005531807 0.009303426 -0.07352757
v 0.007731781 2.5597064E-05 -0.03420755
v 0.009382419 2.5598323E-05 -0.07637053
v -0.016911125 2.5598323E-05 -0.07637053
v -0.015260467 2.5597064E-05 -0.03420755
v 0.016015148 2.5598556E-05 -0.08430464
v 0.006668644 0.011318662 -0.08579796
v 0.0079364395 0.01351197 -0.09928451
v -0.0034411428 0.013511966 -0.093343
v -0.015063743 0.010228732 -0.098637424
v -0.007202892 0.013511961 -0.110734634
v -0.019901007 0.010598864 -0.11654122
v -0.016786689 0.010783926 -0.11914363
v -0.019803047 2.5599002E-05 -0.099672705
v -0.02211399 2.5599738E-05 -0.12348302
v -0.025320433 2.5599562E-05 -0.11769283
v -0.016911125 2.5598323E-05 -0.07637053
v 0.015986308 2.5598807E-05 -0.09278352
v -0.01306057 -0.009704585 -0.076370545
v -0.011893349 -0.0075503117 -0.03420755
v -0.0037643814 -0.010688352 -0.03420755
v -0.0037643814 -0.013095232 -0.076370545
v 0.004364605 -0.0075503117 -0.03420755
v 0.005531807 -0.009252231 -0.07352756
v 0.007731781 2.5597064E-05 -0.03420755
v 0.009382419 2.5598323E-05 -0.07637053
v -0.016911125 2.5598323E-05 -0.07637053
v -0.015260467 2.5597064E-05 -0.03420755
v 0.006668644 -0.01126747 -0.08579796
v 0.016015148 2.5598556E-05 -0.08430464
v -0.015063743 -0.010177549 -0.09863745
v -0.0034411428 -0.013460766 -0.093343
v 0.0079364395 -0.013460775 -0.09928451
v -0.007202892 -0.013460769 -0.110734634
v -0.019901007 -0.010547665 -0.116541214
v -0.016786689 -0.0107327355 -0.119143605
v -0.019803047 2.5599002E-05 -0.099672705
v 0.015986308 2.5598807E-05 -0.09278352
v -0.02211399 2.5599738E-05 -0.12348302
v -0.025320433 2.5599562E-05 -0.11769283
v -0.016911125 2.5598323E-05 -0.07637053
v -0.08108074 -0.0034279623 0.38502637
v -0.08322048 -0.003607339 0.36552826
v -0.11307999 -0.0034279623 0.3914619
v -0.1385969 -0.0034279623 0.43537393
v 0.01683422 -0.0064152917 0.23499496
v -0.041198615 -0.0064152917 0.2861323
v 0.00047788618 -0.0064152917 0.28658628
v 0.0016077805 -0.0064152917 0.21858525
v 0.028594665 -0.0064152917 0.24314025
v -0.081080474 0.0039093145 0.3850278
v -0.11307972 0.003909315 0.39146334
v -0.08322021 0.0040886914 0.3655297
v -0.13859664 0.0039093145 0.4353754
v 0.01683422 0.006283346 0.23499496
v -0.041198615 0.0062833456 0.2861323
v 0.0016077805 0.0062833456 0.21858525
v 0.00047790527 0.0062833256 0.28658628
v 0.028594665 0.0062833456 0.24314025
v 0.01032093 -0.009471032 0.36177912
v 0.036810987 -0.009471063 0.3220978
v 0.026973343 -0.013993277 0.31765208
v -0.0002883339 -0.013993278 0.3539102
v 0.062327668 -0.009471052 0.27938125
v 0.050645445 -0.01399325 0.27941933
v 0.010272636 0.009328762 0.36174747
v -0.00033668516 0.013850968 0.35387844
v 0.02692501 0.013850962 0.31762028
v 0.036762677 0.009328736 0.32206607
v 0.062279336 0.009328735 0.2793495
v 0.050597094 0.01385094 0.2793876
v 0.0057523344 0.0098505905 -0.3848914
v 0.018302001 0.00580416 -0.39007938
v 0.04312706 0.007929086 -0.3469841
v 0.032157477 0.009850596 -0.34698418
v 0.0058122636 -0.010125995 -0.38493645
v 0.04318697 -0.008204491 -0.34702918
v 0.018361911 -0.0060795695 -0.3901245
v 0.032217387 -0.010125993 -0.34702927
vt 0.38126412 0.66506463
vt 0.38633406 0.54717416
vt 0.4301541 0.54718107
vt 0.4301541 0.66763324
vt 0.47380137 0.5471615
vt 0.47552294 0.6593437
vt 0.51643413 0.54712635
vt 0.51643413 0.66763324
vt 0.34301713 0.66763324
vt 0.34301713 0.5471524
vt 0.5256015 0.6911535
vt 0.4755516 0.6969803
vt 0.30986744 0.72905356
vt 0.4746375 0.7386326
vt 0.42590284 0.7173892
vt 0.3612794 0.72783256
vt 0.32392815 0.77566844
vt 0.3935942 0.7651955
vt 0.3271951 0.7828116
vt 0.27745256 0.7820938
vt 0.28006905 0.77754605
vt 0.5347624 0.71916157
vt 0.38126412 0.66506463
vt 0.4301541 0.66763324
vt 0.4301541 0.54718107
vt 0.38633406 0.54717416
vt 0.47380137 0.5471615
vt 0.47585112 0.6590063
vt 0.51643413 0.54712635
vt 0.51643413 0.66763324
vt 0.34301713 0.66763324
vt 0.34301713 0.5471524
vt 0.47534585 0.6969803
vt 0.5256015 0.6911535
vt 0.30986744 0.72905356
vt 0.3612794 0.72783256
vt 0.42590284 0.7173892
vt 0.4746375 0.7386326
vt 0.32392815 0.77566844
vt 0.3935942 0.7651955
vt 0.3271951 0.7828116
vt 0.48647857 0.7518394
vt 0.5347622 0.7191615
vt 0.27745256 0.7820938
vt 0.28006905 0.77754605
vt 0.38126412 0.66506463
vt 0.4301541 0.66763324
vt 0.4301541 0.54718107
vt 0.38633406 0.54717416
vt 0.47380137 0.5471615
vt 0.47552294 0.6593437
vt 0.51643413 0.54712635
vt 0.51643413 0.66763324
vt 0.34301713 0.66763324
vt 0.34301713 0.5471524
vt 0.5256015 0.6911535
vt 0.4755516 0.6969803
vt 0.4746375 0.7386326
vt 0.42590284 0.7173892
vt 0.3612794 0.72783256
vt 0.3935942 0.7651955
vt 0.32392815 0.77566844
vt 0.3271951 0.7828116
vt 0.30986744 0.72905356
vt 0.27745256 0.7820938
vt 0.28006905 0.77754605
vt 0.34301713 0.66763324
vt 0.5347624 0.71916157
vt 0.38126412 0.66506463
vt 0.38633406 0.54717416
vt 0.4301541 0.54718107
vt 0.4301541 0.66763324
vt 0.47380137 0.5471615
vt 0.47585112 0.6590063
vt 0.51643413 0.54712635
vt 0.51643413 0.66763324
vt 0.34301713 0.66763324
vt 0.34301713 0.5471524
vt 0.47534585 0.6969803
vt 0.5256015 0.6911535
vt 0.3612794 0.72783256
vt 0.42590284 0.7173892
vt 0.4746375 0.7386326
vt 0.3935942 0.7651955
vt 0.32392815 0.77566844
vt 0.3271951 0.7828116
vt 0.30986744 0.72905356
vt 0.5347622 0.7191615
vt 0.27745256 0.7820938
vt 0.28006905 0.77754605
vt 0.34301713 0.66763324
vt 0.66835284 0.58613855
vt 0.7146497 0.5651316
vt 0.7152093 0.6381077
vt 0.66835284 0.72730094
vt 0.9327827 0.8903975
vt 0.71133375 0.9283246
vt 0.7741656 0.865836
vt 0.9327827 0.92790127
vt 0.9327827 0.8657087
vt 0.66835284 0.58613855
vt 0.7152093 0.6381077
vt 0.7146497 0.5651316
vt 0.66835284 0.72730094
vt 0.9327827 0.89048177
vt 0.71133375 0.9283246
vt 0.9327827 0.92790294
vt 0.7741656 0.865836
vt 0.9327827 0.8657083
vt 0.9766609 0.9606042
vt 0.83619374 0.9607858
vt 0.84139585 0.9388608
vt 0.97496873 0.9388954
vt 0.6884271 0.9610826
vt 0.7078852 0.9388954
vt 0.9766609 0.9606042
vt 0.97496873 0.9388954
vt 0.84139585 0.9388608
vt 0.83619374 0.9607858
vt 0.6884271 0.9610826
vt 0.7078852 0.9388954
vt 0.6422458 0.39892104
vt 0.60332376 0.40576795
vt 0.616436 0.50143826
vt 0.643435 0.48902795
vt 0.64135283 0.39875323
vt 0.616436 0.50143826
vt 0.60332376 0.40576795
vt 0.643435 0.48902795
vn -0.6852363 0.7250146 -0.06931835
vn -0.6968773 0.7171903 0
vn 0.00736667 0.99997294 0
vn -0.016549073 0.99731076 -0.07139573
vn 0.699656 0.7144799 0
vn 0.6630275 0.73187214 -0.15734583
vn 1 0 0
vn 0.89681804 -6.983423E-07 -0.44239968
vn -0.9964175 -1.0141496E-07 -0.08457044
vn -1 0 0
vn 0.9641728 -1.2747722E-07 -0.2652751
vn 0.49797615 0.85396427 -0.15088023
vn -0.9794017 -1.8282205E-07 -0.2019215
vn 0.32326925 0.94098043 -0.100263946
vn -0.08840122 0.99485695 -0.04944487
vn -0.64175445 0.75751126 -0.119699396
vn -0.6468106 0.74843216 0.14657909
vn -0.20615013 0.9775013 -0.04464723
vn -0.37368348 0.8428497 0.3872531
vn -0.8393138 1.0856895E-07 0.54364735
vn -0.99343103 0 0.11443202
vn 0.9999943 0 0.0034012643
vn -0.6852363 -0.72501457 -0.06931824
vn -0.016549133 -0.99731076 -0.07139578
vn 0.0073667015 -0.99997294 0
vn -0.6968775 -0.71719027 0
vn 0.699656 -0.71447986 0
vn 0.66302747 -0.7318721 -0.15734616
vn 1 0 0
vn 0.89681804 -6.983423E-07 -0.44239968
vn -0.9964175 -1.0141496E-07 -0.08457044
vn -1 0 0
vn 0.49797612 -0.8539642 -0.1508804
vn 0.9641728 -1.2747722E-07 -0.2652751
vn -0.9794017 -1.8282205E-07 -0.2019215
vn -0.6417547 -0.757511 -0.11969967
vn -0.08840165 -0.99485695 -0.049445037
vn 0.21235633 -0.97497016 -0.06586324
vn -0.64681005 -0.7484325 0.14657977
vn -0.19132444 -0.9806518 -0.041436613
vn -0.37368244 -0.84284925 0.3872553
vn 4.4082103E-07 -1 8.951878E-07
vn 0.9999943 0 0.0034012643
vn -0.8393138 1.0856895E-07 0.54364735
vn -0.99343103 0 0.11443202
vn -0.68523616 0.7250146 0.06931825
vn -0.016549168 0.99731076 0.07139576
vn 0.00736667 0.99997294 0
vn -0.6968773 0.7171903 0
vn 0.699656 0.7144799 0
vn 0.66302747 0.7318721 0.15734604
vn 1 0 0
vn 0.89681774 1.543704E-07 0.44240016
vn -0.99903023 0 0.04402836
vn -1 0 0
vn 0.96417266 0 0.26527518
vn 0.49797612 0.8539642 0.15088053
vn 0.3232695 0.9409803 0.10026403
vn -0.08840171 0.99485695 0.049445067
vn -0.6417547 0.757511 0.11969961
vn -0.20615044 0.97750115 0.04464751
vn -0.6468102 0.7484326 -0.14657873
vn -0.37368414 0.8428489 -0.38725427
vn -0.9794017 1.421949E-07 0.20192139
vn -0.8393142 0 -0.5436466
vn -0.99343115 0 -0.11443189
vn -0.9923868 1.3868124E-07 0.123160414
vn 0.9999943 0 -0.0034012683
vn -0.6852363 -0.7250146 0.069318384
vn -0.6968775 -0.71719027 0
vn 0.0073667015 -0.99997294 0
vn -0.016549082 -0.99731076 0.07139575
vn 0.699656 -0.71447986 0
vn 0.6630275 -0.73187214 0.15734597
vn 1 0 0
vn 0.89681774 1.543704E-07 0.44240016
vn -0.99903023 0 0.04402836
vn -1 0 0
vn 0.4979761 -0.85396427 0.15088037
vn 0.96417266 0 0.26527518
vn -0.6417544 -0.75751126 0.1196996
vn -0.08840122 -0.99485695 0.049444854
vn 0.32326934 -0.9409803 0.100264095
vn -0.20615028 -0.97750115 0.04464746
vn -0.6468106 -0.7484322 -0.14657862
vn -0.37368426 -0.84284943 -0.38725302
vn -0.9794017 1.421949E-07 0.20192139
vn 0.9999943 0 -0.0034012683
vn -0.8393142 0 -0.5436466
vn -0.99343115 0 -0.11443189
vn -0.9923868 1.3868124E-07 0.123160414
vn 0.0018101728 -0.9999579 0.009000658
vn 0.0018101727 -0.9999579 0.009000658
vn 0.0018101728 -0.9999579 0.009000658
vn -0 -1 0
vn -0 -1 0
vn -0 -1 0
vn -0 -1 0
vn -0 -1 0
vn -0 -1 0
vn 0.0018101848 0.9999579 0.009000672
vn 0.0018101849 0.9999579 0.009000672
vn 0.0018101849 0.9999579 0.009000673
vn -0 1 0
vn -0 1 2.135186E-07
vn 3.3976698E-07 1 3.9723793E-07
vn -0 1 0
vn 3.9647867E-07 1 5.300612E-07
vn -1.8808115E-07 1 3.4473453E-07
vn 0.2899077 -0.93479663 0.2052039
vn 0.31847596 -0.9250884 0.20684429
vn 0.3136683 -0.9267884 0.20658031
vn 0.28990775 -0.93479663 0.2052039
vn 0.34244487 -0.9162051 0.20808594
vn 0.34244487 -0.9162051 0.20808595
vn 0.2899058 0.93479776 0.20520157
vn 0.28990582 0.93479776 0.2052016
vn 0.31366736 0.926789 0.20657913
vn 0.31847504 0.9250889 0.20684333
vn 0.3424449 0.9162051 0.20808609
vn 0.34244493 0.9162051 0.2080861
vn 0.2253135 0.9587042 -0.1735517
vn 0.23307355 0.955396 -0.18137042
vn 0.18694183 0.97305185 -0.13499184
vn 0.17130807 0.9779643 -0.119328715
vn 0.2253127 -0.95870453 -0.173551
vn 0.18694106 -0.9730521 -0.13499118
vn 0.23307276 -0.9553963 -0.18136975
vn 0.17130728 -0.9779645 -0.119328044
g Eff_Equip_Bow_Narukami_Model_0
f 3/3/3 2/2/2 1/1/1
f 4/4/4 3/3/3 1/1/1
f 5/5/5 3/3/3 4/4/4
f 6/6/6 5/5/5 4/4/4
f 7/7/7 5/5/5 6/6/6
f 8/8/8 7/7/7 6/6/6
f 1/1/1 2/2/2 9/9/9
f 2/2/2 10/10/10 9/9/9
f 11/11/11 8/8/8 6/6/6
f 12/12/12 6/6/6 4/4/4
f 11/11/11 6/6/6 12/12/12
f 1/1/1 9/9/9 13/13/13
f 14/14/14 11/11/11 12/12/12
f 14/14/14 12/12/12 15/15/15
f 12/12/12 4/4/4 15/15/15
f 16/16/16 15/15/15 4/4/4
f 4/4/4 1/1/1 16/16/16
f 13/13/13 16/16/16 1/1/1
f 16/16/16 13/13/13 17/17/17
f 18/18/18 15/15/15 16/16/16
f 17/17/17 18/18/18 16/16/16
f 14/14/14 15/15/15 18/18/18
f 17/17/17 19/19/19 18/18/18
f 19/19/19 17/17/17 20/20/20
f 17/17/17 21/21/21 20/20/20
f 17/17/17 13/13/13 21/21/21
f 14/14/14 22/22/22 11/11/11
f 25/25/25 24/24/24 23/23/23
f 26/26/26 25/25/25 23/23/23
f 25/25/25 27/27/27 24/24/24
f 27/27/27 28/28/28 24/24/24
f 27/27/27 29/29/29 28/28/28
f 29/29/29 30/30/30 28/28/28
f 26/26/26 23/23/23 31/31/31
f 32/32/32 26/26/26 31/31/31
f 28/28/28 33/33/33 24/24/24
f 28/28/28 34/34/34 33/33/33
f 28/28/28 30/30/30 34/34/34
f 35/35/35 31/31/31 23/23/23
f 36/36/36 23/23/23 24/24/24
f 23/23/23 36/36/36 35/35/35
f 24/24/24 37/37/37 36/36/36
f 24/24/24 33/33/33 37/37/37
f 33/33/33 38/38/38 37/37/37
f 38/38/38 33/33/33 34/34/34
f 36/36/36 39/39/39 35/35/35
f 37/37/37 40/40/40 36/36/36
f 40/40/40 39/39/39 36/36/36
f 37/37/37 38/38/38 40/40/40
f 41/41/41 39/39/39 40/40/40
f 38/38/38 42/42/42 40/40/40
f 38/38/38 34/34/34 43/43/43
f 39/39/39 41/41/41 44/44/44
f 45/45/45 39/39/39 44/44/44
f 35/35/35 39/39/39 45/45/45
f 48/48/48 47/47/47 46/46/46
f 49/49/49 48/48/48 46/46/46
f 48/48/48 50/50/50 47/47/47
f 50/50/50 51/51/51 47/47/47
f 50/50/50 52/52/52 51/51/51
f 52/52/52 53/53/53 51/51/51
f 49/49/49 46/46/46 54/54/54
f 55/55/55 49/49/49 54/54/54
f 53/53/53 56/56/56 51/51/51
f 51/51/51 57/57/57 47/47/47
f 51/51/51 56/56/56 57/57/57
f 56/56/56 58/58/58 57/57/57
f 57/57/57 58/58/58 59/59/59
f 47/47/47 57/57/57 59/59/59
f 59/59/59 60/60/60 47/47/47
f 46/46/46 47/47/47 60/60/60
f 59/59/59 61/61/61 60/60/60
f 59/59/59 58/58/58 61/61/61
f 61/61/61 62/62/62 60/60/60
f 63/63/63 62/62/62 61/61/61
f 64/64/64 60/60/60 62/62/62
f 62/62/62 63/63/63 65/65/65
f 66/66/66 62/62/62 65/65/65
f 64/64/64 62/62/62 66/66/66
f 60/60/60 64/64/64 46/46/46
f 67/67/67 46/46/46 64/64/64
f 68/68/68 58/58/58 56/56/56
f 71/71/71 70/70/70 69/69/69
f 72/72/72 71/71/71 69/69/69
f 73/73/73 71/71/71 72/72/72
f 74/74/74 73/73/73 72/72/72
f 75/75/75 73/73/73 74/74/74
f 76/76/76 75/75/75 74/74/74
f 69/69/69 70/70/70 77/77/77
f 70/70/70 78/78/78 77/77/77
f 79/79/79 74/74/74 72/72/72
f 80/80/80 74/74/74 79/79/79
f 76/76/76 74/74/74 80/80/80
f 69/69/69 81/81/81 72/72/72
f 82/82/82 72/72/72 81/81/81
f 79/79/79 72/72/72 82/82/82
f 83/83/83 79/79/79 82/82/82
f 79/79/79 83/83/83 80/80/80
f 84/84/84 82/82/82 81/81/81
f 83/83/83 82/82/82 84/84/84
f 85/85/85 84/84/84 81/81/81
f 85/85/85 86/86/86 84/84/84
f 85/85/85 81/81/81 87/87/87
f 80/80/80 83/83/83 88/88/88
f 86/86/86 85/85/85 89/89/89
f 85/85/85 90/90/90 89/89/89
f 85/85/85 87/87/87 90/90/90
f 81/81/81 69/69/69 87/87/87
f 91/91/91 87/87/87 69/69/69
f 94/94/94 93/93/93 92/92/92
f 95/95/95 94/94/94 92/92/92
f 98/98/98 97/97/97 96/96/96
f 97/97/97 99/99/99 96/96/96
f 100/100/100 98/98/98 96/96/96
f 103/103/103 102/102/102 101/101/101
f 102/102/102 104/104/104 101/101/101
f 107/107/107 106/106/106 105/105/105
f 106/106/106 108/108/108 105/105/105
f 108/108/108 109/109/109 105/105/105
f 112/112/112 111/111/111 110/110/110
f 113/113/113 112/112/112 110/110/110
f 111/111/111 112/112/112 114/114/114
f 112/112/112 115/115/115 114/114/114
f 118/118/118 117/117/117 116/116/116
f 119/119/119 118/118/118 116/116/116
f 118/118/118 119/119/119 120/120/120
f 121/121/121 118/118/118 120/120/120
f 124/124/124 123/123/123 122/122/122
f 125/125/125 124/124/124 122/122/122
f 128/128/128 127/127/127 126/126/126
f 127/127/127 129/129/129 126/126/126
